<?xml version="1.0" encoding="UTF-8" standalone="no"?>


<svg height="512" width="512" viewBox="0 0 100 100" xmlns="http://www.w3.org/2000/svg" xmlns:xlink= "http://www.w3.org/1999/xlink">
  <linearGradient id="grad1" x1="0%" y1="75%" x2="100%" y2="25%">
      <stop offset="0%" style="stop-color:rgb(191,159,95);stop-opacity:1" />
    <stop offset="100%" style="stop-color:rgb(127,191,95);stop-opacity:1" />
  </linearGradient>
    <g stroke-width="3" stroke-linecap="round" fill="none" stroke="url(#grad1)">
      <path d="M 35 10 L 50 35 L 65 10" />
    </g>
    <g stroke-width="3" stroke-linecap="round" fill="none" stroke="url(#grad1)">
      <path d="M 10 35 Q 6 62.5 10 90 Q 50 94 90 90 Q 94 62.5 90 35 Q 50 31 10 35" />
    </g>
    <g stroke-width="2" stroke-linecap="round" fill="none" stroke="rgb(248,248,248)">
      <path d="M 35 10 L 50 35 L 65 10" />
    </g>
    <g stroke-width="2" stroke-linecap="round" fill="url(#grad1)" stroke="rgb(248,248,248)">
      <path d="M 10 35 Q 6 62.5 10 90 Q 50 94 90 90 Q 94 62.5 90 35 Q 50 31 10 35" />
    </g>
    <g stroke-width="1" stroke-linecap="round" fill="none" stroke="white">
      <path d="M 15 62.5 Q 32.5 50 50 62.5 Q 67.5 75 85 62.5" />
      <path d="M 15 62.5 Q 32.5 55 50 62.5 Q 67.5 70 85 62.5" />
      <path d="M 15 62.5 Q 32.5 45 50 62.5 Q 67.5 80 85 62.5" />
    </g>
</svg>
